# This file uses centimeters as units for non-parametric coordinates.

mtllib Hexagon_Mesh.mtl
g default
v 0.000000 5.761113 0.000000
v 0.450005 5.761113 -0.779432
v -0.450005 5.761113 -0.779432
v -0.900010 5.761113 -0.000000
v -0.450005 5.761113 0.779431
v 0.450005 5.761113 0.779431
v 0.900010 5.761113 -0.000000
v -0.538180 0.000876 -0.799895
v -0.423639 0.000876 -0.866025
v -0.538180 5.674520 -0.799895
v -0.423639 5.674520 -0.866025
v 0.423639 0.000876 -0.866025
v 0.538180 0.000876 -0.799895
v 0.423639 5.674520 -0.866025
v 0.538180 5.674520 -0.799895
v -0.961820 0.000876 0.066130
v -0.961820 0.000876 -0.066131
v -0.961820 5.674520 0.066130
v -0.961820 5.674520 -0.066131
v -0.423639 0.000876 0.866025
v -0.538180 0.000876 0.799895
v -0.423639 5.674520 0.866025
v -0.538180 5.674520 0.799895
v 0.538180 0.000876 0.799895
v 0.423639 0.000876 0.866025
v 0.538180 5.674520 0.799895
v 0.423639 5.674520 0.866025
v 0.961820 0.000876 -0.066130
v 0.961820 0.000876 0.066130
v 0.961820 5.674520 -0.066130
v 0.961820 5.674520 0.066130
vt 0.429690 0.966027
vt 0.359383 0.844406
vt 0.429691 0.722284
vt 0.570310 0.722441
vt 0.640617 0.844246
vt 0.570307 0.966028
vt 0.500000 0.837500
vt 0.377085 0.688386
vt 0.414590 0.688344
vt 0.418751 0.688386
vt 0.456257 0.688344
vt 0.460420 0.688366
vt 0.497923 0.688357
vt 0.502085 0.688386
vt 0.539590 0.688344
vt 0.622905 0.688371
vt 0.585418 0.688386
vt 0.543751 0.688386
vt 0.581257 0.688344
vt 0.378182 0.312500
vt 0.419848 0.312500
vt 0.461515 0.312500
vt 0.503182 0.312500
vt 0.544848 0.312500
vt 0.586515 0.312500
vt 0.621818 0.312500
vt 0.413485 0.312500
vt 0.419848 0.672163
vt 0.375000 0.312500
vt 0.378182 0.672163
vt 0.375000 0.672163
vt 0.455152 0.312500
vt 0.461515 0.672163
vt 0.496818 0.312500
vt 0.503182 0.672163
vt 0.538485 0.312500
vt 0.544848 0.672163
vt 0.580152 0.312500
vt 0.586515 0.672163
vt 0.413485 0.672163
vt 0.624248 0.678041
vt 0.621818 0.672163
vt 0.455152 0.672163
vt 0.496818 0.672163
vt 0.538485 0.672163
vt 0.580152 0.672163
vn 0.000000 0.707107 -0.707106
vn 0.000000 0.707107 -0.707106
vn 0.000000 0.707107 -0.707106
vn 0.000000 0.707107 -0.707106
vn -0.612370 0.707108 -0.353555
vn -0.612370 0.707108 -0.353555
vn -0.612370 0.707108 -0.353555
vn -0.612370 0.707108 -0.353555
vn -0.612370 0.707108 0.353555
vn -0.612370 0.707108 0.353555
vn -0.612371 0.707108 0.353555
vn -0.612370 0.707108 0.353555
vn 0.000000 0.707108 0.707105
vn 0.000000 0.707108 0.707106
vn 0.000000 0.707108 0.707106
vn 0.000000 0.707108 0.707105
vn 0.612370 0.707108 0.353555
vn 0.612370 0.707108 0.353555
vn 0.612370 0.707108 0.353555
vn 0.612370 0.707108 0.353555
vn 0.000000 0.000000 -1.000000
vn 0.000000 0.000000 -1.000000
vn 0.000000 0.000000 -1.000000
vn 0.000000 0.000000 -1.000000
vn -0.866025 0.000000 -0.500000
vn -0.866025 0.000000 -0.500000
vn -0.866025 0.000000 -0.500000
vn -0.866025 0.000000 -0.500000
vn -0.866025 0.000000 0.500000
vn -0.866025 0.000000 0.500000
vn -0.866025 0.000000 0.500000
vn -0.866025 0.000000 0.500000
vn 0.000000 0.000000 1.000000
vn 0.000000 0.000000 1.000000
vn 0.000000 0.000000 1.000000
vn 0.000000 0.000000 1.000000
vn 0.866025 0.000000 0.500000
vn 0.866025 0.000000 0.500000
vn 0.866025 0.000000 0.500000
vn 0.866025 0.000000 0.500000
vn 0.866025 0.000000 -0.500000
vn 0.866025 0.000000 -0.500000
vn 0.866025 0.000000 -0.500000
vn 0.866025 0.000000 -0.500000
vn 0.000000 1.000000 0.000000
vn 0.000000 1.000000 0.000000
vn 0.000000 1.000000 0.000000
vn 0.000000 1.000000 0.000001
vn 0.000000 1.000000 0.000001
vn 0.000000 1.000000 0.000001
vn 0.000000 1.000000 -0.000001
vn 0.000000 1.000000 -0.000001
vn 0.000000 1.000000 -0.000001
vn 0.000000 1.000000 0.000000
vn 0.000000 1.000000 0.000000
vn 0.000000 1.000000 0.000000
vn 0.000000 1.000000 -0.000001
vn 0.000000 1.000000 -0.000001
vn 0.000000 1.000000 -0.000001
vn 0.000000 1.000000 0.000001
vn 0.000000 1.000000 0.000001
vn 0.000000 1.000000 0.000001
vn 0.612370 0.707108 -0.353555
vn 0.612371 0.707108 -0.353555
vn 0.612370 0.707108 -0.353555
vn 0.612370 0.707108 -0.353555
vn -0.500001 0.000000 -0.866025
vn -0.500001 0.000000 -0.866025
vn -0.500001 0.000000 -0.866025
vn -0.500001 0.000000 -0.866025
vn 0.500001 0.000000 -0.866025
vn 0.500001 0.000000 -0.866025
vn 0.500001 0.000000 -0.866025
vn 0.500001 0.000000 -0.866025
vn -1.000000 0.000000 0.000000
vn -1.000000 0.000000 0.000000
vn -1.000000 0.000000 0.000000
vn -1.000000 0.000000 0.000000
vn -0.500002 0.000000 0.866024
vn -0.500002 0.000000 0.866024
vn -0.500002 0.000000 0.866024
vn -0.500002 0.000000 0.866024
vn 0.500002 0.000000 0.866024
vn 0.500002 0.000000 0.866024
vn 0.500002 0.000000 0.866024
vn 0.500002 0.000000 0.866024
vn 1.000000 0.000000 0.000000
vn 1.000000 0.000000 0.000000
vn 1.000000 0.000000 0.000000
vn 1.000000 0.000000 0.000000
vn -0.406964 0.580974 -0.704876
vn -0.406964 0.580974 -0.704876
vn -0.406964 0.580974 -0.704876
vn 0.406964 0.580974 -0.704876
vn 0.406964 0.580974 -0.704876
vn 0.406964 0.580974 -0.704876
vn -0.813925 0.580970 0.000000
vn -0.813925 0.580970 0.000000
vn -0.813925 0.580970 0.000000
vn -0.406965 0.580975 0.704874
vn -0.406965 0.580975 0.704874
vn -0.406965 0.580975 0.704874
vn 0.406965 0.580975 0.704874
vn 0.406965 0.580975 0.704874
vn 0.406965 0.580975 0.704874
vn 0.813925 0.580970 0.000000
vn 0.813925 0.580970 0.000000
vn 0.813925 0.580970 0.000000
s off
g Hexagon
usemtl initialShadingGroup
f 2/8/1 14/30/2 11/40/3 3/9/4
f 3/10/5 10/28/6 19/43/7 4/11/8
f 4/12/9 18/33/10 23/44/11 5/13/12
f 5/14/13 22/35/14 27/45/15 6/15/16
f 6/18/17 26/37/18 31/46/19 7/19/20
f 14/30/21 12/20/22 9/27/23 11/40/24
f 10/28/25 8/21/26 17/32/27 19/43/28
f 18/33/29 16/22/30 21/34/31 23/44/32
f 22/35/33 20/23/34 25/36/35 27/45/36
f 26/37/37 24/24/38 29/38/39 31/46/40
f 30/39/41 28/25/42 13/26/43 15/42/44
f 2/6/45 3/1/46 1/7/47
f 3/1/48 4/2/49 1/7/50
f 4/2/51 5/3/52 1/7/53
f 5/3/54 6/4/55 1/7/56
f 6/4/57 7/5/58 1/7/59
f 7/5/60 2/6/61 1/7/62
f 15/42/63 2/16/64 7/17/65 30/39/66
f 9/27/67 8/21/68 10/28/69 11/40/70
f 13/29/71 12/20/72 14/30/73 15/31/74
f 17/32/75 16/22/76 18/33/77 19/43/78
f 21/34/79 20/23/80 22/35/81 23/44/82
f 25/36/83 24/24/84 26/37/85 27/45/86
f 29/38/87 28/25/88 30/39/89 31/46/90
f 10/28/91 3/9/92 11/40/93
f 14/41/94 2/16/95 15/42/96
f 18/33/97 4/11/98 19/43/99
f 22/35/100 5/13/101 23/44/102
f 26/37/103 6/15/104 27/45/105
f 30/39/106 7/19/107 31/46/108
